<mxfile host="Electron" modified="2023-11-02T14:28:07.869Z" agent="Mozilla/5.0 (X11; Linux x86_64) AppleWebKit/537.36 (KHTML, like Gecko) draw.io/21.3.7 Chrome/112.0.5615.204 Electron/24.5.0 Safari/537.36" etag="qV1sjR1Wv6CTG9wR4SCB" version="21.3.7" type="device">
  <diagram name="Page-1" id="ukJr07_c3Hn4pDndtCBV">
    <mxGraphModel dx="144" dy="535" grid="1" gridSize="10" guides="1" tooltips="1" connect="1" arrows="1" fold="1" page="1" pageScale="1" pageWidth="850" pageHeight="1100" math="0" shadow="0">
      <root>
        <mxCell id="0" />
        <mxCell id="1" parent="0" />
      </root>
    </mxGraphModel>
  </diagram>
</mxfile>
